<svg version="1.0" xmlns="http://www.w3.org/2000/svg"
 width="32.000000pt" height="32.000000pt" viewBox="0 0 32.000000 32.000000"
 preserveAspectRatio="xMidYMid meet">

<g transform="translate(0.000000,32.000000) scale(0.100000,-0.100000)"
fill="#000000" stroke="none">
<path d="M0 160 l0 -160 160 0 160 0 0 160 0 160 -160 0 -160 0 0 -160z m280
60 c0 -53 -2 -60 -20 -60 -13 0 -20 -7 -20 -20 0 -13 7 -20 20 -20 17 0 20 -7
20 -40 l0 -40 -40 0 c-33 0 -40 3 -40 20 0 13 -7 20 -20 20 -13 0 -20 -7 -20
-20 0 -18 -7 -20 -60 -20 -53 0 -60 2 -60 20 0 13 7 20 20 20 13 0 20 7 20 20
0 13 -7 20 -20 20 -18 0 -20 7 -20 80 l0 80 120 0 120 0 0 -60z"/>
<path d="M200 220 c0 -13 7 -20 20 -20 13 0 20 7 20 20 0 13 -7 20 -20 20 -13
0 -20 -7 -20 -20z"/>
<path d="M120 180 c0 -13 -7 -20 -20 -20 -13 0 -20 -7 -20 -20 0 -13 7 -20 20
-20 13 0 20 7 20 20 0 13 7 20 20 20 13 0 20 -7 20 -20 0 -13 7 -20 20 -20 13
0 20 -7 20 -20 0 -13 7 -20 20 -20 13 0 20 7 20 20 0 13 -7 20 -20 20 -13 0
-20 7 -20 20 0 13 -7 20 -20 20 -13 0 -20 7 -20 20 0 13 -7 20 -20 20 -13 0
-20 -7 -20 -20z"/>
</g>
</svg>
